<?xml version="1.0" encoding="utf-8"?>
<!-- Generator: Adobe Illustrator 21.1.0, SVG Export Plug-In . SVG Version: 6.00 Build 0)  -->
<svg version="1.1" id="Camada_1" xmlns="http://www.w3.org/2000/svg" xmlns:xlink="http://www.w3.org/1999/xlink" x="0px" y="0px"
	 viewBox="0 0 250 250" style="enable-background:new 0 0 250 250;" xml:space="preserve">
<style type="text/css">
	.st0{fill:#F7F7F7;}
	.st1{fill:#E0E0E0;}
	.st2{fill:#2A2A2A;}
</style>
<g>
	<path class="st0" d="M234.3,250H15.8C7.1,250,0,242.9,0,234.3V15.8C0,7.1,7.1,0,15.8,0h218.5c8.7,0,15.8,7.1,15.8,15.8v218.5
		C250,242.9,242.9,250,234.3,250z"/>
</g>
<g>
	<path class="st1" d="M234.3,250H124V0h110.3c8.7,0,15.8,7.1,15.8,15.8v218.5C250,242.9,242.9,250,234.3,250z"/>
</g>
<circle class="st2" cx="187" cy="63" r="17"/>
<circle class="st2" cx="61" cy="63" r="17"/>
<circle class="st2" cx="124" cy="126" r="17"/>
<circle class="st2" cx="187" cy="188" r="17"/>
<circle class="st2" cx="61" cy="188" r="17"/>
</svg>
